<svg xmlns="http://www.w3.org/2000/svg" width="871.459" height="781.785" viewBox="0 0 871.459 781.785">
  <g id="Group_4" data-name="Group 4" transform="translate(-2601 3925)">
    <g id="Group_3" data-name="Group 3">
      <g id="Ellipse_5" data-name="Ellipse 5" transform="translate(2601 -3925)" fill="none" stroke="#000" stroke-width="50">
        <circle cx="178.5" cy="178.5" r="178.5" stroke="none"/>
        <circle cx="178.5" cy="178.5" r="153.5" fill="none"/>
      </g>
      <line id="Line_4" data-name="Line 4" y2="136" transform="translate(2779.5 -3815.5)" fill="none" stroke="#000" stroke-linecap="round" stroke-width="46"/>
      <line id="Line_5" data-name="Line 5" x2="133" transform="translate(2712.5 -3746.5)" fill="none" stroke="#000" stroke-linecap="round" stroke-width="46"/>
    </g>
    <path id="Subtraction_1" data-name="Subtraction 1" d="M44.307,656.29h0a15.15,15.15,0,0,1-11.846-5.023,22.2,22.2,0,0,1-4.4-8.238,42.752,42.752,0,0,1-1.684-9.145,59.415,59.415,0,0,1,.065-10.477c.15-.153,3.695-3.773,9.755-9.089A279.744,279.744,0,0,1,62.391,594a222.623,222.623,0,0,1,38.033-21.129c15.637-6.658,30.867-10.532,45.267-11.517,18.619-1.273,54.7-1.919,107.241-1.919,89.652,0,197.1,1.9,198.174,1.919l97.668-2.159L565.5,484.729l-75.005-2.7H89.034a44.893,44.893,0,0,1-8.4.748,43.475,43.475,0,0,1-9.019-.907,31.629,31.629,0,0,1-9.655-3.687c-7.26-4.331-11.768-11.57-13.4-21.515C43.234,424.16.432,230.906,0,228.958l51.262,31.3,10.253,41.009,83.638-2.7-2.7-24.822h31.3l2.159,22.663,107.92-8.633-2.7-65.832L298.4,204.676l145.154-14.569,3.237-48.025L336.172,153.953l18.346-46.945L641.047,74.093v0a95.08,95.08,0,0,1,5.589-10.856c2.227-3.8,4.7-7.574,7.357-11.222a137.589,137.589,0,0,1,10.728-12.993,122.927,122.927,0,0,1,32.553-25.024,115.666,115.666,0,0,1,22.319-8.9A123.774,123.774,0,0,1,746.27.707C754.648.238,762.469,0,769.516,0c8.414,0,16.026.339,22.625,1.008a106.377,106.377,0,0,1,17.068,2.978,46.12,46.12,0,0,1,11.908,4.882,22.014,22.014,0,0,1,7.145,6.718C832.521,22.21,832,31.11,826.671,42.8A30.116,30.116,0,0,1,814.327,56.9a33.3,33.3,0,0,1-16.764,4.075,65.02,65.02,0,0,1-23.556-5.039,85.163,85.163,0,0,1-19.644-10.985,20.505,20.505,0,0,0-6.605-3.321,27.268,27.268,0,0,0-7.828-1.084,43.134,43.134,0,0,0-16.282,3.543,58.37,58.37,0,0,0-8.326,4.3,64.681,64.681,0,0,0-8,5.88A66.914,66.914,0,0,0,685.3,91.9c-7.887,39.43-18.958,95.82-19.425,98.2v.007L629.176,390.3,594.642,574.843a69.713,69.713,0,0,1-1.282,10.725,35.192,35.192,0,0,1-2.588,8.17c-1.315,2.713-2.918,4.526-4.764,5.388-1.076.5-6.491.736-17.039.736-13.32,0-33.244-.366-58.468-.83l-.333-.006c-7.025-.129-14.29-.263-21.91-.4-34.526-.61-75.559-1.234-118.111-1.234-36.268,0-67.67.448-96,1.368-33.244,1.08-61.757,2.836-84.748,5.22-41.072,4.258-69.984,9.9-88.388,17.242C85,627.612,79.159,634.394,74,640.378a55.834,55.834,0,0,1-7.359,7.513,38.7,38.7,0,0,1-11.605,6.273A32.428,32.428,0,0,1,44.307,656.29ZM432.222,389.219l-115.575,5.4,2.8,44.788,107.921-2.7ZM160.8,400.549h0l-77.163,4.317,5.935,30.757H162.96L160.8,400.55ZM582.771,387.06,462.44,390.838l-3.777,44.248H574.137l8.634-48.025Zm-434.38-58.817-78.781,5.4,7.015,36.693,78.242-4.856Zm137.059-9.713-105.762,5.4,6.475,45.327H285.45Zm151.628-10.792-123.03,8.095,3.777,49.1L433.3,361.16Zm161.88-9.713-130.044,9.713L466.756,356.3l121.951-3.237,10.252-55.04Zm-158.1-77.7-126.807,13.49V286.7L438.158,275.9Zm176.989-17.267L474.851,218.7l-5.936,54.5,138.138-12.95Zm13.49-81.48L479.167,139.923l-4.316,47.485L622.7,172.839Z" transform="translate(2641.353 -3799.506)"/>
  </g>
</svg>
